<?xml version="1.0" standalone="no"?>
<!DOCTYPE svg PUBLIC "-//W3C//DTD SVG 20010904//EN"
 "http://www.w3.org/TR/2001/REC-SVG-20010904/DTD/svg10.dtd">
<svg version="1.0" xmlns="http://www.w3.org/2000/svg"
 width="573.000000pt" height="435.000000pt" viewBox="0 0 573.000000 435.000000"
 preserveAspectRatio="xMidYMid meet">

<g transform="translate(0.000000,435.000000) scale(0.100000,-0.100000)"
fill="#000000" stroke="none">
<path d="M3631 3588 c-19 -5 -43 -15 -53 -23 -18 -12 -17 -15 19 -44 32 -27
43 -30 73 -24 57 11 182 8 225 -6 22 -8 54 -24 72 -37 17 -13 43 -24 57 -24
48 0 126 -22 160 -45 l34 -23 36 24 c20 14 59 30 86 37 28 6 50 15 50 18 0 17
-46 62 -82 80 -29 15 -56 20 -98 18 -53 -2 -62 0 -96 31 -36 31 -41 32 -99 28
-33 -3 -76 -13 -94 -22 -31 -16 -35 -16 -92 3 -63 22 -141 26 -198 9z"/>
<path d="M4398 3393 c6 -2 18 -2 25 0 6 3 1 5 -13 5 -14 0 -19 -2 -12 -5z"/>
<path d="M4073 3383 c9 -2 23 -2 30 0 6 3 -1 5 -18 5 -16 0 -22 -2 -12 -5z"/>
<path d="M4348 3383 c7 -3 16 -2 19 1 4 3 -2 6 -13 5 -11 0 -14 -3 -6 -6z"/>
<path d="M4472 3379 c51 -15 116 -75 133 -124 9 -25 14 -32 15 -19 1 50 -90
140 -150 149 l-35 5 37 -11z"/>
<path d="M4135 3368 c11 -6 35 -25 54 -42 l34 -31 -18 28 c-10 15 -31 35 -46
43 -32 16 -54 19 -24 2z"/>
<path d="M4343 3313 c9 -2 23 -2 30 0 6 3 -1 5 -18 5 -16 0 -22 -2 -12 -5z"/>
<path d="M4707 3251 c-4 -17 -3 -21 5 -13 5 5 8 16 6 23 -3 8 -7 3 -11 -10z"/>
<path d="M4755 3213 c11 -2 30 -6 42 -9 31 -6 91 -61 109 -98 11 -24 12 -26 8
-6 -7 30 -58 86 -96 106 -15 8 -40 13 -55 13 -20 -1 -22 -3 -8 -6z"/>
<path d="M4718 3153 c12 -2 30 -2 40 0 9 3 -1 5 -23 4 -22 0 -30 -2 -17 -4z"/>
<path d="M1759 3128 c-5 -10 -17 -18 -27 -18 -11 0 -13 -3 -6 -8 7 -4 14 -16
17 -27 4 -15 5 -14 6 8 1 22 6 27 25 27 13 0 27 -6 29 -12 4 -10 6 -10 6 0 1
16 63 16 79 0 10 -10 15 -10 21 1 6 10 13 10 28 3 12 -7 25 -7 34 -1 8 5 9 9
2 9 -6 0 -19 8 -29 18 -14 13 -35 17 -97 17 -65 0 -81 -3 -88 -17z"/>
<path d="M4520 3130 c70 -9 107 -28 153 -79 20 -23 37 -36 37 -31 0 6 -21 31
-47 55 -50 48 -94 66 -158 64 -36 -1 -34 -2 15 -9z"/>
<path d="M4414 3115 c-24 -18 -7 -19 26 0 16 9 19 14 9 15 -8 0 -24 -7 -35
-15z"/>
<path d="M4922 3040 c0 -19 2 -27 5 -17 2 9 2 25 0 35 -3 9 -5 1 -5 -18z"/>
<path d="M4736 3027 c3 -10 9 -15 12 -12 3 3 0 11 -7 18 -10 9 -11 8 -5 -6z"/>
<path d="M4751 2984 c0 -11 3 -14 6 -6 3 7 2 16 -1 19 -3 4 -6 -2 -5 -13z"/>
<path d="M1952 2900 c0 -46 2 -58 8 -39 4 14 4 43 0 65 -7 35 -8 32 -8 -26z"/>
<path d="M4455 2930 c-10 -32 -61 -86 -95 -100 -17 -7 -29 -15 -26 -17 8 -8
60 24 87 54 30 32 53 72 46 80 -3 2 -8 -5 -12 -17z"/>
<path d="M4844 2904 c-23 -23 -64 -51 -95 -63 -30 -12 -40 -19 -24 -16 17 4
48 17 70 30 40 23 102 82 94 88 -2 2 -22 -16 -45 -39z"/>
<path d="M4424 2838 l-19 -23 23 19 c21 18 27 26 19 26 -2 0 -12 -10 -23 -22z"/>
<path d="M3909 2822 c26 -18 -21 -72 -63 -72 -24 0 -19 19 8 30 13 5 27 14 31
20 4 7 -7 5 -23 -4 -17 -9 -46 -16 -65 -16 -21 0 -37 -6 -40 -14 -8 -20 -106
-91 -159 -115 -24 -11 -60 -23 -80 -26 -25 -4 -38 -11 -38 -21 0 -20 42 -12
114 22 68 32 83 31 57 -2 -15 -19 -21 -41 -21 -75 0 -37 -4 -49 -15 -49 -8 0
-15 3 -15 8 0 4 -7 15 -14 25 -12 15 -18 16 -40 6 -14 -7 -26 -16 -26 -20 0
-14 83 -216 135 -329 66 -142 124 -309 160 -460 47 -197 30 -311 -81 -549 -24
-51 -44 -97 -44 -101 0 -5 -22 -30 -50 -57 -45 -43 -54 -61 -95 -176 l-45
-127 56 0 c48 0 61 4 90 30 33 29 62 39 158 56 l49 9 17 60 c9 33 34 98 54
145 20 46 52 134 70 195 18 60 54 163 81 229 40 101 47 126 43 170 -6 67 -35
126 -73 146 -24 13 -39 37 -72 117 -23 55 -51 135 -63 179 l-20 78 26 54 c14
29 41 73 59 97 19 24 40 56 48 72 8 15 24 37 36 47 12 11 21 30 21 43 0 13 7
39 15 59 17 40 5 79 -26 87 -25 7 -34 33 -19 52 18 22 27 19 35 -12 8 -35 53
-83 77 -83 24 0 23 3 -16 54 -18 24 -37 57 -40 72 -4 15 -16 34 -27 42 -10 7
-19 24 -19 38 0 14 -6 24 -14 24 -8 0 -30 9 -48 19 -34 20 -115 40 -89 23z
m43 -335 c-42 -75 -115 -162 -137 -162 -24 0 -65 96 -68 157 l-2 41 45 4 c25
2 63 12 84 22 36 15 43 15 72 2 l33 -15 -27 -49z"/>
<path d="M1863 2802 c-80 -3 -113 -17 -55 -24 l27 -3 2 -507 c1 -280 -1 -508
-4 -508 -3 0 -34 31 -69 69 -35 37 -77 74 -94 81 -27 11 -32 10 -48 -9 -32
-40 -152 -37 -152 4 0 13 -6 12 -39 -5 -53 -27 -75 -58 -105 -148 -28 -82 -33
-150 -15 -184 6 -11 8 -23 4 -26 -4 -4 -41 -9 -83 -12 l-77 -5 60 -59 60 -60
3 -258 3 -258 32 0 c63 0 62 -4 61 252 0 211 -8 306 -32 366 -4 11 2 13 29 7
18 -4 43 -14 55 -22 28 -18 139 -27 189 -15 l40 9 -27 11 c-32 13 -31 12 -18
46 8 22 14 25 42 19 18 -3 42 -10 52 -16 18 -9 19 -6 13 42 -6 55 0 62 27 32
10 -11 32 -25 49 -32 18 -7 35 -18 39 -23 4 -6 8 -215 8 -463 0 -249 4 -453 8
-453 15 0 22 181 22 563 0 215 4 367 9 367 25 0 81 73 111 145 l32 79 -33 28
c-39 33 -46 34 -54 11 -3 -10 -18 -33 -34 -52 l-28 -34 -6 244 c-3 134 -3 362
0 507 6 257 6 262 27 262 20 1 65 27 55 32 -2 2 -41 2 -86 0z m-410 -1083 c12
-20 1 -69 -16 -69 -21 1 -50 49 -38 64 6 7 7 16 3 20 -4 5 4 6 17 4 13 -1 28
-10 34 -19z"/>
<path d="M4253 2803 c15 -2 37 -2 50 0 12 2 0 4 -28 4 -27 0 -38 -2 -22 -4z"/>
<path d="M4491 2768 c7 -13 16 -39 20 -58 6 -32 7 -32 8 -7 1 26 -23 87 -35
87 -2 0 1 -10 7 -22z"/>
<path d="M4185 2765 c33 -16 60 -18 90 -6 14 6 7 8 -25 7 -25 0 -56 2 -70 6
-19 6 -18 4 5 -7z"/>
<path d="M4547 2704 c6 -68 11 -77 12 -24 0 25 -3 51 -8 59 -5 8 -7 -5 -4 -35z"/>
<path d="M4606 2733 c-6 -14 -5 -15 5 -6 7 7 10 15 7 18 -3 3 -9 -2 -12 -12z"/>
<path d="M4197 2629 c7 -7 15 -10 18 -7 3 3 -2 9 -12 12 -14 6 -15 5 -6 -5z"/>
<path d="M4535 2611 c-3 -11 -20 -32 -36 -46 -17 -14 -27 -25 -22 -25 23 1 82
74 70 87 -3 2 -8 -5 -12 -16z"/>
<path d="M4360 2585 c-19 -14 -29 -25 -23 -25 7 0 25 11 40 25 36 31 28 31
-17 0z"/>
<path d="M4200 2593 c0 -13 48 -38 57 -30 3 4 0 7 -7 7 -7 0 -22 7 -32 17 -10
9 -18 12 -18 6z"/>
<path d="M4283 2553 c9 -2 23 -2 30 0 6 3 -1 5 -18 5 -16 0 -22 -2 -12 -5z"/>
<path d="M4438 2533 c7 -3 16 -2 19 1 4 3 -2 6 -13 5 -11 0 -14 -3 -6 -6z"/>
<path d="M3483 2363 c9 -2 23 -2 30 0 6 3 -1 5 -18 5 -16 0 -22 -2 -12 -5z"/>
<path d="M702 2295 c9 -12 24 -36 32 -55 8 -19 15 -29 16 -22 0 20 -26 67 -47
83 -17 13 -17 13 -1 -6z"/>
<path d="M4847 2218 c-2 -7 0 -21 5 -30 7 -14 22 -18 71 -18 58 0 63 -2 75
-27 6 -15 12 -32 12 -39 0 -6 11 -14 25 -16 22 -5 25 -2 25 23 0 15 2 34 6 42
3 8 -7 28 -21 46 -25 29 -31 31 -90 31 -35 0 -67 -5 -70 -10 -5 -8 -11 -8 -20
0 -10 8 -14 7 -18 -2z"/>
<path d="M880 1779 c0 -38 -2 -40 -17 -28 -15 13 -15 12 0 -11 13 -21 17 -79
23 -383 4 -196 9 -356 11 -354 2 2 4 107 5 233 1 164 5 240 15 268 7 22 11 41
8 44 -3 3 -5 0 -5 -6 0 -7 -4 -12 -10 -12 -6 0 -10 55 -10 145 0 90 -4 145
-10 145 -5 0 -10 -19 -10 -41z"/>
<path d="M533 1724 c-8 -21 4 -154 16 -185 8 -18 9 -13 3 21 -4 25 -7 75 -7
113 0 70 -2 77 -12 51z"/>
<path d="M661 1605 l-2 -100 -25 30 -25 30 10 -28 c6 -15 18 -41 27 -59 13
-26 18 -81 24 -297 l7 -266 1 235 2 235 27 40 c19 30 21 35 6 23 -11 -10 -23
-18 -26 -18 -4 0 -7 37 -8 83 -1 45 -4 107 -9 137 -7 50 -7 46 -9 -45z"/>
<path d="M4565 1481 c-7 -13 17 -24 40 -19 9 1 16 8 16 13 0 14 -48 19 -56 6z"/>
<path d="M4692 1479 c2 -6 8 -10 13 -10 5 0 11 4 13 10 2 6 -4 11 -13 11 -9 0
-15 -5 -13 -11z"/>
<path d="M761 1433 c-10 -26 -10 -27 4 -9 8 11 15 23 15 28 0 15 -7 8 -19 -19z"/>
<path d="M1056 1432 c-4 -15 -9 -101 -12 -192 -6 -201 -10 -227 -32 -233 -16
-4 -16 -5 1 -6 13 -1 17 -10 17 -45 0 -40 3 -45 33 -57 18 -8 67 -14 117 -14
l85 0 3 210 c2 116 0 225 -3 243 -5 28 -9 32 -35 30 -24 -2 -30 -7 -30 -25 0
-13 -5 -23 -11 -23 -6 0 -9 19 -7 47 3 45 2 47 -27 53 -16 4 -44 14 -61 23
-32 16 -32 16 -38 -11z"/>
<path d="M2140 1225 l0 -215 -30 0 c-28 0 -30 -2 -30 -40 0 -28 4 -40 14 -40
17 0 30 -112 25 -211 -4 -60 -3 -64 19 -67 22 -3 22 -3 22 137 l0 141 570 0
570 0 2 -72 c1 -40 3 -102 3 -138 0 -60 2 -65 23 -68 22 -3 22 -3 22 137 0
119 2 141 15 141 11 0 15 11 15 39 0 36 -3 40 -27 43 l-28 3 -3 213 c-2 172
-5 212 -16 212 -8 0 -16 -7 -20 -15 -5 -13 -76 -15 -556 -15 -480 0 -551 2
-556 15 -4 8 -12 15 -20 15 -12 0 -14 -38 -14 -215z m1150 60 c0 -13 -68 -15
-555 -15 -487 0 -555 2 -555 15 0 13 68 15 555 15 487 0 555 -2 555 -15z m0
-205 l0 -70 -557 2 -558 3 -3 68 -3 67 561 0 560 0 0 -70z"/>
<path d="M4605 1373 c21 -47 37 -159 29 -193 l-9 -35 -127 -3 c-96 -2 -129 -6
-138 -17 -11 -13 7 -15 139 -15 l151 0 0 140 0 140 -26 0 c-21 0 -25 -3 -19
-17z"/>
<path d="M4165 1153 c-90 -17 -109 -24 -112 -44 0 -8 -7 -48 -14 -89 -8 -41
-13 -78 -12 -82 1 -3 -2 -57 -8 -119 -7 -89 -7 -114 3 -121 10 -6 8 -12 -6
-23 -38 -29 -62 -13 -30 20 9 8 13 23 10 31 -5 14 -10 12 -27 -10 -11 -14 -19
-36 -17 -48 3 -20 10 -23 56 -26 40 -2 54 1 58 13 4 8 20 30 37 48 17 18 28
24 24 14 -4 -11 -1 -20 8 -24 21 -7 0 -33 -26 -33 -11 0 -19 -4 -19 -10 0 -5
21 -10 48 -10 49 0 54 4 90 70 18 33 52 157 45 164 -3 3 2 8 11 12 13 5 16 22
16 104 0 55 4 102 10 105 20 12 11 52 -15 63 -30 14 -28 14 -130 -5z"/>
<path d="M4698 1133 c7 -3 16 -2 19 1 4 3 -2 6 -13 5 -11 0 -14 -3 -6 -6z"/>
<path d="M4330 1031 c0 -26 -3 -69 -6 -95 l-7 -46 64 0 64 0 1 -70 c1 -47 7
-78 18 -95 10 -15 15 -33 12 -41 -3 -8 1 -14 8 -14 8 0 27 -13 44 -28 53 -49
134 -64 199 -37 32 13 45 14 86 3 45 -11 50 -11 63 7 8 10 14 25 14 32 0 15
-36 18 -45 3 -6 -10 -45 -14 -45 -5 0 2 11 21 25 41 47 69 56 143 29 235 -23
75 -49 108 -110 136 -59 27 -130 26 -183 -2 -38 -19 -40 -19 -34 5 5 19 0 20
-96 20 l-101 0 0 -49z m398 -5 c130 -68 150 -255 38 -353 -43 -39 -72 -47
-131 -40 -56 6 -88 26 -123 79 -24 37 -27 51 -27 123 0 74 3 86 29 124 16 23
46 51 65 61 43 23 112 25 149 6z"/>
<path d="M4585 920 c16 -16 37 -30 47 -30 13 0 18 8 18 30 0 29 -1 30 -47 30
l-47 0 29 -30z"/>
<path d="M4521 919 c-7 -20 -5 -25 10 -27 11 -2 26 -2 35 0 13 2 11 8 -10 27
l-26 24 -9 -24z"/>
<path d="M4532 858 c5 -15 28 -18 29 -3 0 6 -7 12 -17 13 -10 3 -15 -1 -12
-10z"/>
<path d="M4634 846 c-7 -31 1 -46 26 -46 23 0 36 36 20 55 -19 22 -39 18 -46
-9z"/>
<path d="M4536 808 c-12 -39 -15 -67 -7 -72 13 -8 27 14 34 52 5 25 3 32 -9
32 -8 0 -16 -6 -18 -12z"/>
<path d="M925 982 c-16 -11 -37 -27 -45 -38 -11 -14 -9 -14 10 3 14 12 41 29
60 37 19 8 28 15 20 16 -8 0 -28 -8 -45 -18z"/>
<path d="M791 914 c0 -11 3 -14 6 -6 3 7 2 16 -1 19 -3 4 -6 -2 -5 -13z"/>
<path d="M3976 885 c-3 -9 -6 -22 -5 -28 0 -7 5 -1 10 12 5 13 8 26 5 28 -2 2
-6 -3 -10 -12z"/>
<path d="M581 855 c-17 -20 -31 -43 -31 -53 1 -9 7 -3 15 15 8 18 29 42 47 53
20 12 26 20 17 20 -10 0 -31 -16 -48 -35z"/>
<path d="M800 881 c0 -6 4 -13 10 -16 6 -3 7 1 4 9 -7 18 -14 21 -14 7z"/>
<path d="M4325 860 c-3 -5 -1 -10 4 -10 6 0 11 5 11 10 0 6 -2 10 -4 10 -3 0
-8 -4 -11 -10z"/>
<path d="M938 833 c12 -2 32 -2 45 0 12 2 2 4 -23 4 -25 0 -35 -2 -22 -4z"/>
<path d="M3962 820 c0 -14 2 -19 5 -12 2 6 2 18 0 25 -3 6 -5 1 -5 -13z"/>
<path d="M864 814 c-19 -15 -19 -15 1 -6 11 5 27 12 35 15 13 5 13 6 -1 6 -8
1 -24 -6 -35 -15z"/>
<path d="M799 803 c-13 -16 -12 -17 4 -4 9 7 17 15 17 17 0 8 -8 3 -21 -13z"/>
<path d="M4331 804 c0 -11 3 -14 6 -6 3 7 2 16 -1 19 -3 4 -6 -2 -5 -13z"/>
<path d="M810 770 c-12 -16 -19 -30 -16 -30 2 0 14 14 26 30 12 17 19 30 16
30 -2 0 -14 -13 -26 -30z"/>
<path d="M1300 780 c-8 -5 -12 -11 -10 -14 3 -2 14 2 24 10 22 15 10 19 -14 4z"/>
<path d="M3714 754 c-10 -8 -13 -12 -6 -9 8 4 26 11 40 15 22 7 23 8 6 9 -11
1 -29 -6 -40 -15z"/>
<path d="M352 713 c-15 -16 -19 -21 -7 -12 11 9 29 21 40 27 11 6 14 12 8 12
-7 0 -25 -12 -41 -27z"/>
<path d="M550 731 c0 -6 4 -13 10 -16 6 -3 7 1 4 9 -7 18 -14 21 -14 7z"/>
<path d="M3660 715 c-13 -14 -22 -27 -19 -29 2 -2 14 10 27 25 29 36 24 38 -8
4z"/>
<path d="M776 715 c-9 -26 -7 -32 5 -12 6 10 9 21 6 23 -2 3 -7 -2 -11 -11z"/>
<path d="M4266 708 c-9 -12 -16 -30 -16 -40 0 -10 -4 -18 -10 -18 -21 0 -9
-19 26 -39 48 -28 107 -27 169 4 l50 25 -57 -4 -58 -5 0 33 c0 61 -72 91 -104
44z m72 -10 c19 -19 15 -66 -8 -78 -45 -24 -82 37 -44 74 19 19 36 20 52 4z"/>
<path d="M5110 678 c0 -12 -10 -32 -22 -45 -25 -26 -19 -38 14 -30 45 12 61
31 53 65 -8 38 -45 47 -45 10z"/>
<path d="M1406 668 c-14 -54 -8 -68 28 -68 38 0 55 14 32 27 -8 4 -16 19 -18
33 -4 33 -33 38 -42 8z"/>
<path d="M1105 670 c3 -5 15 -10 25 -10 10 0 22 5 25 10 4 6 -7 10 -25 10 -18
0 -29 -4 -25 -10z"/>
<path d="M1225 670 c3 -5 15 -10 26 -10 11 0 17 5 14 10 -3 6 -15 10 -26 10
-11 0 -17 -4 -14 -10z"/>
<path d="M1720 641 c0 -34 14 -41 76 -41 50 0 59 15 15 25 -16 3 -37 15 -47
26 -25 28 -44 24 -44 -10z"/>
<path d="M1100 623 c0 -13 149 -24 163 -12 17 13 -18 22 -90 23 -50 1 -73 -3
-73 -11z"/>
<path d="M1298 623 c-31 -8 -20 -23 16 -23 38 0 55 14 30 24 -17 6 -19 6 -46
-1z"/>
<path d="M3983 602 c10 -9 24 -12 41 -8 40 10 31 23 -15 23 -36 0 -39 -1 -26
-15z"/>
</g>
</svg>
